<svg xmlns="http://www.w3.org/2000/svg" viewBox="0 0 1400 1400"><defs><style>.cls-1{fill:#ff49da;}.cls-2{fill:#883ff5;}.cls-3{fill:#ffdc00;}.cls-4{fill:#ffb2a0;}.cls-5{fill:#fff;}</style></defs><title>hand-gestures-rock-paper-scissors-vector</title><g id="Backgrounds"><rect class="cls-1" x="933.33" width="466.67" height="1400"/><rect class="cls-2" x="466.67" width="466.67" height="1400"/><rect class="cls-3" width="466.67" height="1400"/></g><g id="Hand_gestures" data-name="Hand gestures"><path class="cls-4" d="M1164.7,423.36a14,14,0,0,1,1.27.66c-5.73-.91-13.8.39-24.62,7.65-8.84,5.93-28.59,20.76-46.36,34.36l-7.88-40.43-18.18-120.9c-1-6.92.24-13.46,3.59-18.41,4-6,10-9.54,16.06-9.54,11.72,0,17.11,12.82,19.55,23.45L1127,413.65a2.1,2.1,0,0,0,2.07,1.76h0a2.1,2.1,0,0,0,2.07-1.77l18.9-119.73c1.93-11.38,9.74-23.47,20.43-23.47,5.92,0,11.54,3.47,15.42,9.52,3.29,5.13,4.39,11.81,3.1,18.79l-19.22,103.79-6.26,18.21A2.1,2.1,0,0,0,1164.7,423.36Zm76.19,146.26c17.92-23.89,18.52-29.61,18.52-74.39,0-18.27-4.15-39.25-6.56-49.88l-20.07,58.34a24.15,24.15,0,0,1-46.93-9.46,23.49,23.49,0,0,1-22.91,4.32l-1.06-.36a23.42,23.42,0,0,1-10.37-7.26,2.07,2.07,0,0,1-.47-1.44c-12.41,11.52-25.87,21.63-34.84,26.57,42.66,20.23,49.69,32.51,49.69,53.25a2.1,2.1,0,0,1-4.2,0c0-18.77-5-29.95-51.19-51.28,0,0,0,0-.09-.06a2.25,2.25,0,0,1-.51-.38.73.73,0,0,0-.09-.08,2,2,0,0,1-.36-.56s0,0,0-.05a1.8,1.8,0,0,1-.09-.45,2.25,2.25,0,0,1-.06-.36,1.91,1.91,0,0,1,.06-.33,2.47,2.47,0,0,1,.11-.47s0,0,0,0,.12-.15.17-.24a2,2,0,0,1,.28-.37,1.29,1.29,0,0,1,.36-.25,2.48,2.48,0,0,1,.26-.19c15.34-6.6,57.1-41.16,65.63-62.57a22.56,22.56,0,0,0,.68-2.26c1-4.63.17-10.09-2-14.91a13.5,13.5,0,0,0-3.07-3.52c-6.43-5.11-16.4-3.61-28.08,4.23-10.68,7.17-37.58,27.56-57.38,42.84h0c-16.38,11.48-18.08,21.76-18.08,42.45a1.84,1.84,0,0,1,0,.41c.24,28.09,24.22,48.19,24.46,48.39a2.08,2.08,0,0,1,.77,1.62v98.18h147.08l0-97.77A2.07,2.07,0,0,1,1240.89,569.62Zm1.75-156.53a19.72,19.72,0,0,0-3.66-1.7c-.58-.2-1.17-.36-1.76-.51l-.58-.12c-.4-.08-.81-.16-1.21-.22l-.68-.09-1.14-.09q-.34,0-.69,0c-.3,0-.6,0-.9,0s-.87,0-1.31.07l-.84.1c-.43.06-.85.13-1.28.22l-.81.17c-.46.12-.91.26-1.36.4l-.69.22a21.53,21.53,0,0,0-2,.84,19.83,19.83,0,0,0-10.13,11.42l-1.75,5.09-18.93,55v0l-1.86,5.41a20,20,0,1,0,37.75,13l22.41-65.15v0l.14-.4a19.67,19.67,0,0,0,.57-1.95A20,20,0,0,0,1242.64,413.09Zm-33,9.32v0l4.27-12.42a19.42,19.42,0,0,0-12-24.65l-1.06-.37a19.48,19.48,0,0,0-24.66,12l-8.05,23.4c4.68,2.66,8.45,7.34,10.8,12.69a24,24,0,0,1,1.94,17.65c0,.18-.09.35-.13.52-.19.64-.4,1.28-.63,1.91h0v0c-3.44,8.64-12.22,21.83-24.18,36.35a18.59,18.59,0,0,0,7.35,4.68l1,.37a19.47,19.47,0,0,0,24.65-12l18.94-55.06Z"/><rect class="cls-5" x="1088.89" y="596.03" width="155.56" height="37.33"/><rect class="cls-2" x="1081.89" y="628.47" width="169.56" height="771.53"/><path class="cls-4" d="M775,578.89c18-23.95,18-24.54,17.87-73.66,0-3.85,0-8,0-12.48V363.54a20,20,0,0,0-39.92-1v79.79c0,6.41,2.47,10.5,4.18,10.5a2.1,2.1,0,1,1,0,4.2c-2.56,0-4.78-1.82-6.29-4.79-1.52,3-3.74,4.79-6.32,4.79a2.1,2.1,0,1,1,0-4.2c1.72,0,4.23-4.09,4.23-10.5l0-78.79c0-.37,0-.73,0-1.1V294.21a20,20,0,0,0-39.92-1V429.72c0,6.41,2.47,10.51,4.18,10.51a2.1,2.1,0,1,1,0,4.2c-2.56,0-4.78-1.83-6.29-4.8-1.52,3-3.74,4.8-6.32,4.8a2.1,2.1,0,1,1,0-4.2c1.72,0,4.23-4.1,4.23-10.51l0-135.51c0-.37,0-.73,0-1.1V281.6a20,20,0,0,0-34.11-14.1,19.77,19.77,0,0,0-5.81,14.1V423.42s0,.06,0,.1c0,6.35,2.49,10.4,4.2,10.4a2.11,2.11,0,0,1,0,4.21c-2.57,0-4.79-1.83-6.31-4.8-1.51,3-3.73,4.8-6.3,4.8a2.11,2.11,0,0,1,0-4.21c1.71,0,4.2-4.09,4.2-10.5,0,0,0-.08,0-.12V306.81a20,20,0,0,0-39.92,0V461.17s0,0,0,.07c0,7.51,2.66,14.59,7.11,18.95a13.25,13.25,0,0,0,9.64,4.16l1.25,0c48.26,0,57.07,60.07,57.15,60.69a2.1,2.1,0,0,1-1.8,2.36,1.32,1.32,0,0,1-.28,0,2.09,2.09,0,0,1-2.08-1.81,96.47,96.47,0,0,0-9.94-29.19c-10.29-18.89-25.24-28.22-44.21-27.85a17.51,17.51,0,0,1-12.67-5.35c-5.22-5.12-8.35-13.3-8.37-21.89,0,0,0-.05,0-.07,0-16.63-14.27-51.2-30.92-67.85-7-7-22.42-7.52-30-1-6.11,5.19-5.5,13.55,1.71,23.54,15.87,22,25.61,66.92,25.61,89.47,0,51.57,38.42,71.55,42.51,73.53l1.63,4.2v80.32H774V583.09Z"/><rect class="cls-5" x="622.22" y="596.03" width="155.56" height="37.33"/><rect class="cls-3" x="615.22" y="628.47" width="169.56" height="771.53"/><path class="cls-4" d="M306.91,560.39V668.66H159.85V560.39a2.1,2.1,0,0,0-.78-1.63c-.25-.2-24.69-20.45-24.69-48.8h0c0-30.25,2.31-35.77,17.62-42.18.09,0,.15-.1.24-.14s.1,0,.14-.07l.13-.09c18.23-12.67,28.19-27.17,33.59-35,3.28-4.78,6.73-8,10.18-9.76.39-.19.76-.36,1.14-.51l.09,0c.37-.15.74-.27,1.11-.38h0a11.52,11.52,0,0,1,3-.45h.45c.23,0,.46,0,.68,0l.54.06.62.1c.34.06.67.14,1,.23l.58.2.54.2c.2.08.41.16.61.26s.33.16.5.25.61.33.9.51.6.38.88.58.51.37.74.57.47.38.7.59.44.39.64.59a22.45,22.45,0,0,1,2.64,3.16c.29.43.58.86.85,1.31l.06.1A27.86,27.86,0,0,1,218.43,444a.92.92,0,0,1,0,.16c0,.56,0,1.12-.08,1.67,0,.16,0,.32-.05.48,0,.45-.12.89-.2,1.32,0,.2-.07.39-.11.59-.09.41-.21.81-.32,1.21-.06.18-.1.36-.16.53a16.72,16.72,0,0,1-.64,1.63c-.32.68-.71,1.4-1.12,2.13s-.71,1.23-1.11,1.87h0c-6.24,9.9-19.69,23.66-39.3,40.15l0,0a2.1,2.1,0,0,0,1.36,3.71,1.78,1.78,0,0,0,.39-.07,2.05,2.05,0,0,0,.34.07c14.73,0,23.57,9.83,28.39,18.08,6.05,10.37,9.53,24.61,9.53,39.06a2.1,2.1,0,1,0,4.2,0c0-15.17-3.68-30.18-10.1-41.18C202.62,503.8,193.21,497,182,495.56q9-7.72,16-14.52c4.85,7.52,12.29,12.12,19.85,12.12,10,0,18.07-7.81,21.66-17.07,3.82,9.18,12.29,17.07,22.46,17.07,13.55,0,23.68-14.42,23.68-27.32V396.41a24.53,24.53,0,0,0-.51-4.79,2.06,2.06,0,0,0,.43-.78l18.9-69.38c3.13-10.81,9.21-23.69,20.48-23.69,7,0,12.25,1.83,15.52,5.43,3.43,3.78,4.78,9.66,4,17.42L325.84,471.89a2.11,2.11,0,0,0,0,.26c0,4.48,0,8.63,0,12.48.09,49.7.09,49.7-18.51,74.5A2.1,2.1,0,0,0,306.91,560.39ZM181.58,308.73a65.51,65.51,0,0,0-3.47-14.28c-4.12-10.78-9.36-15.59-17-15.59-4.83,0-9.68,2.34-13.66,6.58-4.6,4.89-7.12,11.35-6.74,17.27L153,462c15.79-11.72,24.69-24.67,29.61-31.82,3.66-5.33,7.26-8.63,10.61-10.57V396.51a27,27,0,0,1,.47-4.95,2,2,0,0,1-.45-1ZM273.65,379l-.28-.26c-.34-.33-.7-.66-1.06-1s-.91-.74-1.38-1.07l-.43-.28c-.43-.29-.86-.57-1.31-.83l-.49-.25q-.63-.35-1.29-.63l-.54-.21c-.43-.17-.87-.32-1.31-.46l-.57-.16c-.46-.12-.93-.21-1.4-.29l-.53-.1a16,16,0,0,0-2-.13,14.75,14.75,0,0,0-1.89.13c-.26,0-.51.08-.76.13l-1,.21q-.51.13-1,.3l-.58.2c-6.8,2.48-11.89,9.47-13.61,16.89a24.24,24.24,0,0,0-.64,5.32v69.33c0,10.47,9.12,23.11,20.44,23.11,11.15,0,19.48-12.2,19.48-23.11V396.51a21,21,0,0,0-.77-5.42A27,27,0,0,0,273.65,379ZM217,373.33c-9.37,0-16.73,8.61-18.87,17.84a23.92,23.92,0,0,0-.65,5.34v21.24h0a16.08,16.08,0,0,1,4.25-.63H202a14.72,14.72,0,0,1,1.76.11l.38.06a17.82,17.82,0,0,1,9.83,5.17,30.72,30.72,0,0,1,8.67,21.75s0,.1,0,.14a23.65,23.65,0,0,1-.26,3.18c0,.17-.05.34-.08.5-.08.48-.17.95-.28,1.41s-.18.65-.27,1-.18.66-.3,1a19.09,19.09,0,0,1-.77,1.94c-.4.84-.88,1.72-1.4,2.63-.22.39-.46.8-.7,1.2l-.56.89c-4.36,7-11,14.56-16.59,20.44C205.48,485,211.68,489,217.89,489c11.15,0,19.48-12.2,19.48-23.11V396.51a21.17,21.17,0,0,0-.76-5.39C234.23,382.12,226.38,373.33,217,373.33Z"/><rect class="cls-5" x="155.56" y="596.03" width="155.56" height="37.33"/><rect class="cls-1" x="148.56" y="628.47" width="169.56" height="771.53"/></g><g id="Text"><path class="cls-1" d="M1187.44,1251.67q-5.34,0-8.07,2.73c-1.83,1.82-3.71,5.13-5.68,9.93q-5,13.14-11.67,18.9a23.45,23.45,0,0,1-15.81,5.76q-11,0-17.73-7.83t-6.69-19.89a29.78,29.78,0,0,1,3.39-14.34,23.54,23.54,0,0,1,9.57-9.7,28.82,28.82,0,0,1,14-3.39v17.59q-6.12,0-9.33,2.61a9.14,9.14,0,0,0-3.21,7.53,9.43,9.43,0,0,0,2.73,7.2,10.26,10.26,0,0,0,7.35,2.58,9.05,9.05,0,0,0,6.51-2.88q2.91-2.88,6-10.2,4.62-12.78,11.34-18.58t17.11-5.79q11.4,0,17.82,7.27t6.42,19.74a34,34,0,0,1-3.48,15.42,26.1,26.1,0,0,1-10,10.89,28.93,28.93,0,0,1-15.3,3.93v-17.7q7.56,0,11-2.94t3.42-9.6Q1197.22,1251.67,1187.44,1251.67Z"/><path class="cls-1" d="M1181.25,1163q15,.66,22.63,8.4t7.68,21.84q0,14.82-9.75,22.71t-27.81,7.89h-14.71q-18,0-27.75-8.16t-9.75-22.68q0-14.28,8-21.69t22.92-8.43v17.7q-9.24.24-12.75,2.85t-3.51,9.57q0,7.08,5,10t16.29,3.12h16.5q13,0,17.89-2.91t4.86-10q0-7-3.39-9.6t-12.28-3Z"/><path class="cls-1" d="M1210.36,1133.7v17.64H1123V1133.7Z"/><path class="cls-1" d="M1187.44,1082q-5.34,0-8.07,2.73c-1.83,1.82-3.71,5.13-5.68,9.93q-5,13.14-11.67,18.91a23.45,23.45,0,0,1-15.81,5.76q-11,0-17.73-7.83t-6.69-19.9a29.78,29.78,0,0,1,3.39-14.34,23.52,23.52,0,0,1,9.57-9.69,28.71,28.71,0,0,1,14-3.39v17.58q-6.12,0-9.33,2.61a9.14,9.14,0,0,0-3.21,7.53,9.4,9.4,0,0,0,2.73,7.2,10.26,10.26,0,0,0,7.35,2.58,9.05,9.05,0,0,0,6.51-2.88c1.94-1.92,4-5.31,6-10.2q4.62-12.78,11.34-18.57t17.11-5.79q11.4,0,17.82,7.26t6.42,19.74a34,34,0,0,1-3.48,15.42,26.07,26.07,0,0,1-10,10.9,28.93,28.93,0,0,1-15.3,3.93v-17.71c5,0,8.7-1,11-2.94s3.42-5.16,3.42-9.6Q1197.22,1082,1187.44,1082Z"/><path class="cls-1" d="M1187.44,1015.61q-5.34,0-8.07,2.73c-1.83,1.82-3.71,5.13-5.68,9.93q-5,13.14-11.67,18.9a23.45,23.45,0,0,1-15.81,5.76q-11,0-17.73-7.83t-6.69-19.89a29.78,29.78,0,0,1,3.39-14.34,23.52,23.52,0,0,1,9.57-9.69,28.71,28.71,0,0,1,14-3.39v17.58q-6.12,0-9.33,2.61a9.14,9.14,0,0,0-3.21,7.53,9.43,9.43,0,0,0,2.73,7.2,10.26,10.26,0,0,0,7.35,2.58,9.05,9.05,0,0,0,6.51-2.88q2.91-2.88,6-10.2,4.62-12.78,11.34-18.57t17.11-5.79q11.4,0,17.82,7.26t6.42,19.74a34,34,0,0,1-3.48,15.42,26.1,26.1,0,0,1-10,10.89,28.93,28.93,0,0,1-15.3,3.93v-17.7q7.56,0,11-2.94t3.42-9.6Q1197.22,1015.61,1187.44,1015.61Z"/><path class="cls-1" d="M1174.54,924.64q17.58,0,27.3,8.31t9.72,23.07q0,14.7-9.63,23.1t-27,8.53h-15q-18,0-28.11-8.35t-10.11-23.16q0-14.58,9.93-23t27.87-8.52Zm-14.65,17.7q-11.82,0-17.58,3.36t-5.76,10.44q0,7,5.55,10.38T1159,970h15.55q11.46,0,16.89-3.42t5.43-10.56q0-6.9-5.31-10.26t-16.47-3.42Z"/><path class="cls-1" d="M1178.44,885.52v8.76h31.92v17.64H1123V883.78q0-13.26,6.87-20.49t19.53-7.23q17.4,0,24.36,12.66l35.77-15.3h.84v19Zm-14.71,8.76v-10q0-5.28-3.51-7.92t-9.39-2.64q-13.14,0-13.14,10.26v10.32Z"/><path class="cls-1" d="M1187.44,807q-5.34,0-8.07,2.73c-1.83,1.82-3.71,5.13-5.68,9.93q-5,13.14-11.67,18.9a23.41,23.41,0,0,1-15.81,5.77q-11,0-17.73-7.83t-6.69-19.9a29.78,29.78,0,0,1,3.39-14.34,23.52,23.52,0,0,1,9.57-9.69,28.71,28.71,0,0,1,14-3.39v17.58q-6.12,0-9.33,2.61a9.14,9.14,0,0,0-3.21,7.53,9.41,9.41,0,0,0,2.73,7.2,10.26,10.26,0,0,0,7.35,2.58,9.05,9.05,0,0,0,6.51-2.88q2.91-2.88,6-10.2,4.62-12.78,11.34-18.57t17.11-5.79q11.4,0,17.82,7.26t6.42,19.74a34,34,0,0,1-3.48,15.42,26,26,0,0,1-10,10.89,28.85,28.85,0,0,1-15.3,3.94V828.81q7.56,0,11-2.94c2.28-2,3.42-5.16,3.42-9.6Q1197.22,807,1187.44,807Z"/><path class="cls-2" d="M713,1272.6h30.72v17.64H656.32v-29.76q0-13,8-20.68t20.89-7.71q12.84,0,20.28,7.62t7.44,21.13Zm-14.7,0v-12.12a9.6,9.6,0,0,0-3.3-7.8q-3.3-2.76-9.6-2.76-6.54,0-10.41,2.82a9,9,0,0,0-3.93,7.56v12.3Z"/><path class="cls-2" d="M725.81,1189.31v24.06l17.88,4.68v18.66l-87.37-27.3v-16.14l87.37-27.48v18.84Zm-14.7,20.22v-16.32L680,1201.37Z"/><path class="cls-2" d="M713,1140h30.72v17.64H656.32v-29.76q0-13,8-20.68t20.89-7.71q12.84,0,20.28,7.62t7.44,21.13Zm-14.7,0v-12.12a9.6,9.6,0,0,0-3.3-7.8q-3.3-2.76-9.6-2.77c-4.36,0-7.83,1-10.41,2.82a9.07,9.07,0,0,0-3.93,7.57V1140Z"/><path class="cls-2" d="M705.89,1042.6v27.48h23.16v-32.52h14.64v50.16H656.32v-50H671v32.4h20.64V1042.6Z"/><path class="cls-2" d="M711.77,1001v8.76h31.92v17.64H656.32V999.22q0-13.26,6.87-20.5t19.54-7.23q17.4,0,24.36,12.67l35.76-15.31h.84v19Zm-14.7,8.76v-10q0-5.28-3.51-7.92t-9.39-2.65Q671,989.13,671,999.4v10.32Z"/><path class="cls-3" d="M245.1,1260.61v8.76H277V1287H189.66v-28.14q0-13.26,6.87-20.5t19.53-7.23q17.4,0,24.36,12.66l35.76-15.3H277v19Zm-14.7,8.76v-10q0-5.28-3.51-7.93c-2.34-1.75-5.47-2.64-9.39-2.64q-13.14,0-13.14,10.26v10.33Z"/><path class="cls-3" d="M241.2,1157.52q17.58,0,27.3,8.31t9.72,23.07q0,14.7-9.63,23.1t-27,8.52H226.68q-18,0-28.11-8.34T188.46,1189q0-14.58,9.93-23t27.87-8.52Zm-14.64,17.7q-11.82,0-17.58,3.36T203.22,1189q0,7,5.55,10.38t16.89,3.48H241.2q11.46,0,16.89-3.42t5.43-10.56q0-6.9-5.31-10.26t-16.47-3.42Z"/><path class="cls-3" d="M247.92,1085.63q14.94.66,22.62,8.4t7.68,21.85q0,14.82-9.75,22.71t-27.81,7.89H226q-18,0-27.75-8.16t-9.75-22.68q0-14.28,8-21.7t22.92-8.43v17.7c-6.16.17-10.41,1.11-12.75,2.85s-3.51,4.94-3.51,9.58,1.65,8.06,5,10,8.73,3,16.29,3.12h16.5q13,0,17.88-2.91t4.86-10q0-7-3.39-9.61t-12.27-3Z"/><path class="cls-3" d="M243.3,1050.17l8.76,7h25v17.64H189.66v-17.64h38.1l-9.42-5.58-28.68-16.26v-21.6l38.4,25,49-25.44v20.94Z"/></g></svg>